<svg xmlns="http://www.w3.org/2000/svg" width="91" height="17" viewBox="0 0 91 17" fill="none">
  <g clip-path="url(#clip0_1_20)">
    <path d="M87.6599 1.56397H88.2367V3.04359H88.5055V1.56397H89.0768V1.28296H87.6599V1.56397Z" fill="#FF5F46"/>
    <path d="M90.6056 1.28295L90.1688 2.62493L89.732 1.28295H89.3512V3.04358H89.6256V2.01129C89.6256 1.98261 89.6256 1.90232 89.6256 1.8163V1.78762L90.0344 3.0149H90.3088L90.7176 1.78762V1.8163C90.7176 1.90232 90.7176 1.95394 90.7176 1.98261V3.0149H90.992V1.25427H90.6112L90.6056 1.28295Z" fill="#FF5F46"/>
    <path d="M23.3476 1.17401C27.5701 1.17401 30.6782 4.40853 30.6782 8.84738C30.6782 13.2576 27.5701 16.5208 23.3476 16.5208H17.9266V1.17401H23.3476ZM23.3476 3.96693H20.7323V13.6246H23.3476C25.9069 13.6246 27.6821 11.474 27.6821 8.82444C27.6821 6.16916 25.9125 3.96693 23.3476 3.96693Z" fill="#FF5F46"/>
    <path d="M43.6763 3.93826V1.17401C43.6763 1.17401 36.8385 1.17401 34.7944 1.17401C33.9768 1.17401 33.2936 1.17401 33.2936 1.17401C33.2936 3.98987 33.2936 11.864 33.2936 12.1966C33.2936 14.9608 34.8224 16.4921 37.3817 16.4921C39.6442 16.4921 43.6483 16.4921 43.6483 16.4921V13.7565H37.6001C36.9449 13.7565 36.1553 13.3665 36.1553 12.2769C36.1553 11.9672 36.1553 11.3536 36.1553 10.2123H42.8587V7.41938H36.1553C36.1553 5.63581 36.1553 3.98414 36.1553 3.93253L43.6763 3.93826Z" fill="#FF5F46"/>
    <path d="M69.6498 0.84137C65.2873 0.84137 61.9104 4.24793 61.9104 8.7384C61.9104 13.2576 65.3153 16.6354 69.6218 16.6354C70.7139 16.6354 71.6659 16.5265 72.6459 16.2455V13.4009C71.5259 13.7106 70.4114 13.7336 69.5938 13.7336C66.9505 13.7336 64.9345 11.5543 64.9345 8.7384C64.9345 5.94548 66.9505 3.68591 69.6218 3.68591C70.6298 3.68591 71.6099 3.9956 72.4835 4.55189L72.5395 4.46586L73.6819 1.86793C72.4835 1.20267 71.0947 0.84137 69.6498 0.84137Z" fill="#FF5F46"/>
    <path d="M84.171 2.51595C83.8686 1.78761 83.219 1.065 82.0205 1.065C80.9565 1.065 80.2509 1.62129 79.8701 2.48727L74.8579 14.3185V16.5207H77.0084L82.0205 4.52318L87.2231 16.5207H89.2391H90.2752L84.171 2.51595Z" fill="#FF5F46"/>
    <path d="M55.5877 2.51595C55.2853 1.78761 54.6357 1.065 53.4373 1.065C52.3732 1.065 51.6676 1.62129 51.2868 2.48727L46.2747 14.3185V16.5207H48.4251L53.4373 4.52318L58.6398 16.5207H60.6559H61.6919L55.5877 2.51595Z" fill="#FF5F46"/>
    <path d="M6.34555 2.68228C6.64796 1.95394 7.26958 1.26001 8.47362 1.26001C9.53765 1.26001 10.2153 1.8163 10.6017 2.6536L15.5634 14.3472V16.5265H13.4354L8.47362 4.6379L3.34387 16.4978H1.35581H0.347778L6.34555 2.68228Z" fill="#FF5F46"/>
  </g>
  <defs>
    <clipPath id="clip0_1_20">
      <rect width="90.6442" height="15.7941" fill="white" transform="translate(0.347778 0.84137)"/>
    </clipPath>
  </defs>
</svg>